{
  "accessors": [
    {
      "bufferView": 1,
      "componentType": 5126,
      "count": 1423,
      "max": [
        3.8701395988464355,
        4.4835844039916992,
        1.5994772911071777
      ],
      "min": [
        -4.0407600402832031,
        -4.8415036201477051,
        -1.5994772911071777
      ],
      "type": "VEC3"
    },
    {
      "bufferView": 1,
      "byteOffset": 17076,
      "componentType": 5126,
      "count": 1423,
      "max": [
        0.999733567237854,
        0.99221247434616089,
        1
      ],
      "min": [
        -0.99975371360778809,
        -0.99968189001083374,
        -1
      ],
      "type": "VEC3"
    },
    {
      "bufferView": 0,
      "componentType": 5125,
      "count": 2283,
      "max": [
        1422
      ],
      "min": [
        0
      ],
      "type": "SCALAR"
    },
    {
      "bufferView": 1,
      "byteOffset": 34152,
      "componentType": 5126,
      "count": 64,
      "max": [
        -1.9456863403320312,
        2.249976634979248,
        0.66828632354736328
      ],
      "min": [
        -3.7476356029510498,
        1.4759557247161865,
        -0.66828632354736328
      ],
      "type": "VEC3"
    },
    {
      "bufferView": 1,
      "byteOffset": 34920,
      "componentType": 5126,
      "count": 64,
      "max": [
        0.20940575003623962,
        0.52777910232543945,
        0.95052719116210938
      ],
      "min": [
        -0.33638972043991089,
        -0.38770177960395813,
        -0.95052719116210938
      ],
      "type": "VEC3"
    },
    {
      "bufferView": 0,
      "byteOffset": 9132,
      "componentType": 5125,
      "count": 96,
      "max": [
        63
      ],
      "min": [
        0
      ],
      "type": "SCALAR"
    }
  ],
  "asset": {
    "extras": {
      "author": "packer (https://sketchfab.com/packer)",
      "license": "CC-BY-4.0 (http://creativecommons.org/licenses/by/4.0/)",
      "source": "https://sketchfab.com/models/7e9078b03c7545969175b4b72ef999c3",
      "title": "Low Poly Rabbit"
    },
    "generator": "Sketchfab-3.18.6",
    "version": "2.0"
  },
  "bufferViews": [
    {
      "buffer": 0,
      "byteLength": 9516,
      "byteOffset": 0,
      "name": "floatBufferViews",
      "target": 34963
    },
    {
      "buffer": 0,
      "byteLength": 35688,
      "byteOffset": 9516,
      "byteStride": 12,
      "name": "floatBufferViews",
      "target": 34962
    }
  ],
  "buffers": [
    {
      "byteLength": 45204,
      "uri": "hare.bin"
    }
  ],
  "materials": [
    {
      "doubleSided": true,
      "emissiveFactor": [
        0,
        0,
        0
      ],
      "name": "Material.001",
      "pbrMetallicRoughness": {
        "baseColorFactor": [
          0.095307500000000003,
          0.0761854,
          0.066625900000000002,
          1
        ],
        "metallicFactor": 0,
        "roughnessFactor": 0.82394172570000002
      }
    },
    {
      "doubleSided": true,
      "emissiveFactor": [
        0,
        0,
        0
      ],
      "name": "Material.002",
      "pbrMetallicRoughness": {
        "baseColorFactor": [
          0.104617,
          0.0190384,
          0.0190384,
          1
        ],
        "metallicFactor": 0,
        "roughnessFactor": 0.82394172570000002
      }
    }
  ],
  "meshes": [
    {
      "name": "Plane_Material.001_0",
      "primitives": [
        {
          "attributes": {
            "NORMAL": 1,
            "POSITION": 0
          },
          "indices": 2,
          "material": 0,
          "mode": 4
        }
      ]
    },
    {
      "name": "Plane_Material.002_0",
      "primitives": [
        {
          "attributes": {
            "NORMAL": 4,
            "POSITION": 3
          },
          "indices": 5,
          "material": 1,
          "mode": 4
        }
      ]
    }
  ],
  "nodes": [
    {
      "children": [
        1
      ],
      "name": "RootNode (gltf orientation matrix)",
      "rotation": [
        -0.70710678118654746,
        -0,
        -0,
        0.70710678118654757
      ]
    },
    {
      "children": [
        2
      ],
      "name": "RootNode (model correction matrix)"
    },
    {
      "children": [
        3
      ],
      "matrix": [
        1,
        0,
        0,
        0,
        0,
        0,
        1,
        0,
        0,
        -1,
        0,
        0,
        0,
        0,
        0,
        1
      ],
      "name": "3005957e3de245fb9ba2d42e2db86e02.fbx"
    },
    {
      "children": [
        4,
        7,
        10
      ],
      "name": "RootNode"
    },
    {
      "children": [
        5,
        6
      ],
      "matrix": [
        7.5497899487686482e-06,
        -99.99999999999973,
        0,
        0,
        7.5497899543197633e-06,
        5.5511151231257827e-13,
        -99.99999999999973,
        0,
        99.999999999999446,
        7.5497899543197633e-06,
        7.5497899487686482e-06,
        0,
        0,
        0,
        0,
        1
      ],
      "name": "Plane"
    },
    {
      "mesh": 0,
      "name": "Plane_Material.001_0"
    },
    {
      "mesh": 1,
      "name": "Plane_Material.002_0"
    },
    {
      "children": [
        8
      ],
      "matrix": [
        -29.08647719990347,
        -5.5189064575668629,
        -95.517119101714371,
        0,
        56.639309131094492,
        79.467234285632031,
        -21.839123978419661,
        0,
        77.110087759933748,
        -60.452463565620441,
        -19.988346967737169,
        0,
        407.62454223632812,
        590.38623046875,
        -100.54539489746094,
        1
      ],
      "name": "Lamp"
    },
    {
      "children": [
        9
      ],
      "matrix": [
        1,
        0,
        0,
        0,
        0,
        2.2204460492503131e-16,
        1,
        0,
        0,
        -1,
        2.2204460492503131e-16,
        0,
        0,
        0,
        0,
        1
      ],
      "name": ""
    },
    {
      "name": ""
    },
    {
      "children": [
        11
      ],
      "matrix": [
        -65.486158987964302,
        -44.524533257868043,
        -61.066594134371584,
        0,
        -31.737005689635694,
        89.534328298476524,
        -31.246864258620555,
        0,
        68.588085341836845,
        -1.0816627522614031,
        -72.763346231679549,
        0,
        748.1131591796875,
        534.36651611328125,
        650.76397705078125,
        1
      ],
      "name": "Camera"
    },
    {
      "name": ""
    }
  ],
  "scene": 0,
  "scenes": [
    {
      "name": "OSG_Scene",
      "nodes": [
        0
      ]
    }
  ]
}

